REM DIRINDEX 1\2\4\18,1\2\4\19,1\2\5\20,1\2\5\21,1\2\6\22,1\2\6\23,1\2\7\24,1\2\8\25,1\2\9\26,1\2\10\27,1\2\10\28,1\3\11\29,1\3\11\30,1\3\11\31,1\3\11\32,1\3\12\33,1\3\12\34,1\3\12\35,1\3\12\36,1\3\13\37,1\3\13\38,1\3\13\39,1\3\13\40,1\3\14\41,1\3\14\42,1\3\15\43,1\3\15\44,1\3\16\45,1\3\16\46,1\3\17\47,1\3\17\48,1\3\17\49,1\3\17\50
REM DIRNAME cjc135,folder01,folder02,folder03,folder04,folder05,folder06,folder07,folder08,folder09,folder10,folder11,folder12,folder13,folder14,folder15,folder16,folder17,folder18,folder19,folder20,folder21,folder22,folder23,folder24,folder25,folder26,folder27,folder28,folder29,folder30,folder31,folder32,folder33,folder34,folder35,folder36,folder37,folder38,folder39,folder40,folder41,folder42,folder43,folder44,folder45,folder46,folder47,folder48,folder49
TITLE ""
FILE "14.mp3" MP3
  TRACK 01 AUDIO
    TITLE "0:"
    INDEX 01 00:00:00
  TRACK 02 AUDIO
    TITLE "26:cjc135_2050"
    INDEX 01 00:00:15
  TRACK 03 AUDIO
    TITLE "0:"
    INDEX 01 00:02:04
  TRACK 04 AUDIO
    TITLE "26:cjc135_2051"
    INDEX 01 00:02:55
  TRACK 05 AUDIO
    TITLE "0:"
    INDEX 01 00:04:31
  TRACK 06 AUDIO
    TITLE "26:cjc135_2052"
    INDEX 01 00:05:07
  TRACK 07 AUDIO
    TITLE "0:"
    INDEX 01 00:06:59
  TRACK 08 AUDIO
    TITLE "26:cjc135_2053"
    INDEX 01 00:07:35
  TRACK 09 AUDIO
    TITLE "0:"
    INDEX 01 00:09:44
  TRACK 10 AUDIO
    TITLE "26:cjc135_2054"
    INDEX 01 00:10:19
  TRACK 11 AUDIO
    TITLE "0:"
    INDEX 01 00:11:74
  TRACK 12 AUDIO
    TITLE "26:cjc135_2055"
    INDEX 01 00:12:50
  TRACK 13 AUDIO
    TITLE "0:"
    INDEX 01 00:14:54
  TRACK 14 AUDIO
    TITLE "26:cjc135_2056"
    INDEX 01 00:15:30
  TRACK 15 AUDIO
    TITLE "0:"
    INDEX 01 00:16:71
  TRACK 16 AUDIO
    TITLE "26:cjc135_2057"
    INDEX 01 00:17:45
  TRACK 17 AUDIO
    TITLE "0:"
    INDEX 01 00:19:18
  TRACK 18 AUDIO
    TITLE "26:cjc135_2058"
    INDEX 01 00:19:67
  TRACK 19 AUDIO
    TITLE "0:"
    INDEX 01 00:21:49
  TRACK 20 AUDIO
    TITLE "26:cjc135_2059"
    INDEX 01 00:22:21
  TRACK 21 AUDIO
    TITLE "0:"
    INDEX 01 00:24:04
  TRACK 22 AUDIO
    TITLE "26:cjc135_2060"
    INDEX 01 00:24:57
  TRACK 23 AUDIO
    TITLE "0:"
    INDEX 01 00:26:26
  TRACK 24 AUDIO
    TITLE "26:cjc135_2061"
    INDEX 01 00:27:02
  TRACK 25 AUDIO
    TITLE "0:"
    INDEX 01 00:28:43
  TRACK 26 AUDIO
    TITLE "26:cjc135_2062"
    INDEX 01 00:29:19
  TRACK 27 AUDIO
    TITLE "0:"
    INDEX 01 00:31:26
  TRACK 28 AUDIO
    TITLE "26:cjc135_2063"
    INDEX 01 00:32:00
  TRACK 29 AUDIO
    TITLE "0:"
    INDEX 01 00:33:62
  TRACK 30 AUDIO
    TITLE "26:cjc135_2064"
    INDEX 01 00:34:38
  TRACK 31 AUDIO
    TITLE "0:"
    INDEX 01 00:36:48
  TRACK 32 AUDIO
    TITLE "26:cjc135_2065"
    INDEX 01 00:37:22
  TRACK 33 AUDIO
    TITLE "0:"
    INDEX 01 00:38:16
  TRACK 34 AUDIO
    TITLE "26:cjc135_2066"
    INDEX 01 00:38:71
  TRACK 35 AUDIO
    TITLE "0:"
    INDEX 01 00:40:05
  TRACK 36 AUDIO
    TITLE "26:cjc135_2067"
    INDEX 01 00:40:58
  TRACK 37 AUDIO
    TITLE "0:"
    INDEX 01 00:41:71
  TRACK 38 AUDIO
    TITLE "26:cjc135_2068"
    INDEX 01 00:42:49
  TRACK 39 AUDIO
    TITLE "0:"
    INDEX 01 00:43:50
  TRACK 40 AUDIO
    TITLE "26:cjc135_2069"
    INDEX 01 00:44:24
  TRACK 41 AUDIO
    TITLE "0:"
    INDEX 01 00:45:49
  TRACK 42 AUDIO
    TITLE "26:cjc135_2070"
    INDEX 01 00:46:25
  TRACK 43 AUDIO
    TITLE "0:"
    INDEX 01 00:47:68
  TRACK 44 AUDIO
    TITLE "26:cjc135_2071"
    INDEX 01 00:48:44
  TRACK 45 AUDIO
    TITLE "0:"
    INDEX 01 00:49:41
  TRACK 46 AUDIO
    TITLE "26:cjc135_2072"
    INDEX 01 00:50:17
  TRACK 47 AUDIO
    TITLE "0:"
    INDEX 01 00:51:24
  TRACK 48 AUDIO
    TITLE "26:cjc135_2073"
    INDEX 01 00:52:00
  TRACK 49 AUDIO
    TITLE "0:"
    INDEX 01 00:53:13
  TRACK 50 AUDIO
    TITLE "26:cjc135_2074"
    INDEX 01 00:53:62
  TRACK 51 AUDIO
    TITLE "0:"
    INDEX 01 00:54:74
  TRACK 52 AUDIO
    TITLE "26:cjc135_2075"
    INDEX 01 00:55:50
  TRACK 53 AUDIO
    TITLE "0:"
    INDEX 01 00:57:03
  TRACK 54 AUDIO
    TITLE "26:cjc135_2076"
    INDEX 01 00:57:52
  TRACK 55 AUDIO
    TITLE "0:"
    INDEX 01 00:59:06
  TRACK 56 AUDIO
    TITLE "26:cjc135_2077"
    INDEX 01 00:59:59
  TRACK 57 AUDIO
    TITLE "0:"
    INDEX 01 01:00:62
  TRACK 58 AUDIO
    TITLE "26:cjc135_2078"
    INDEX 01 01:01:36
  TRACK 59 AUDIO
    TITLE "0:"
    INDEX 01 01:02:54
  TRACK 60 AUDIO
    TITLE "26:cjc135_2079"
    INDEX 01 01:03:27
  TRACK 61 AUDIO
    TITLE "0:"
    INDEX 01 01:04:37
  TRACK 62 AUDIO
    TITLE "26:cjc135_2080"
    INDEX 01 01:05:13
  TRACK 63 AUDIO
    TITLE "0:"
    INDEX 01 01:06:20
  TRACK 64 AUDIO
    TITLE "26:cjc135_2081"
    INDEX 01 01:07:04
  TRACK 65 AUDIO
    TITLE "0:"
    INDEX 01 01:08:40
  TRACK 66 AUDIO
    TITLE "26:cjc135_2082"
    INDEX 01 01:09:16
  TRACK 67 AUDIO
    TITLE "0:"
    INDEX 01 01:10:53
  TRACK 68 AUDIO
    TITLE "26:cjc135_2083"
    INDEX 01 01:11:29
  TRACK 69 AUDIO
    TITLE "0:"
    INDEX 01 01:12:28
  TRACK 70 AUDIO
    TITLE "26:cjc135_2084"
    INDEX 01 01:13:02
  TRACK 71 AUDIO
    TITLE "0:"
    INDEX 01 01:13:71
  TRACK 72 AUDIO
    TITLE "26:cjc135_2085"
    INDEX 01 01:14:47
  TRACK 73 AUDIO
    TITLE "0:"
    INDEX 01 01:16:34
  TRACK 74 AUDIO
    TITLE "26:cjc135_2086"
    INDEX 01 01:17:10
  TRACK 75 AUDIO
    TITLE "0:"
    INDEX 01 01:18:25
  TRACK 76 AUDIO
    TITLE "26:cjc135_2087"
    INDEX 01 01:19:03
  TRACK 77 AUDIO
    TITLE "0:"
    INDEX 01 01:20:10
  TRACK 78 AUDIO
    TITLE "26:cjc135_2088"
    INDEX 01 01:20:59
  TRACK 79 AUDIO
    TITLE "0:"
    INDEX 01 01:22:25
  TRACK 80 AUDIO
    TITLE "26:cjc135_2089"
    INDEX 01 01:23:03
  TRACK 81 AUDIO
    TITLE "0:"
    INDEX 01 01:24:26
  TRACK 82 AUDIO
    TITLE "26:cjc135_2090"
    INDEX 01 01:25:00
  TRACK 83 AUDIO
    TITLE "0:"
    INDEX 01 01:26:19
  TRACK 84 AUDIO
    TITLE "26:cjc135_2091"
    INDEX 01 01:26:70
  TRACK 85 AUDIO
    TITLE "0:"
    INDEX 01 01:28:20
  TRACK 86 AUDIO
    TITLE "26:cjc135_2092"
    INDEX 01 01:28:69
  TRACK 87 AUDIO
    TITLE "0:"
    INDEX 01 01:29:74
  TRACK 88 AUDIO
    TITLE "26:cjc135_2093"
    INDEX 01 01:30:52
  TRACK 89 AUDIO
    TITLE "0:"
    INDEX 01 01:32:02
  TRACK 90 AUDIO
    TITLE "26:cjc135_2094"
    INDEX 01 01:32:55
  TRACK 91 AUDIO
    TITLE "0:"
    INDEX 01 01:35:08
  TRACK 92 AUDIO
    TITLE "26:cjc135_2095"
    INDEX 01 01:35:59
  TRACK 93 AUDIO
    TITLE "0:"
    INDEX 01 01:36:74
  TRACK 94 AUDIO
    TITLE "26:cjc135_2096"
    INDEX 01 01:37:50
  TRACK 95 AUDIO
    TITLE "0:"
    INDEX 01 01:38:71
  TRACK 96 AUDIO
    TITLE "26:cjc135_2097"
    INDEX 01 01:39:45
  TRACK 97 AUDIO
    TITLE "0:"
    INDEX 01 01:41:20
  TRACK 98 AUDIO
    TITLE "26:cjc135_2098"
    INDEX 01 01:41:73
  TRACK 99 AUDIO
    TITLE "0:"
    INDEX 01 01:43:15
  TRACK 100 AUDIO
    TITLE "26:cjc135_2099"
    INDEX 01 01:43:64
  TRACK 101 AUDIO
    TITLE "0:"
    INDEX 01 01:45:08
  TRACK 102 AUDIO
    TITLE "26:cjc135_2100"
    INDEX 01 01:45:57
  TRACK 103 AUDIO
    TITLE "0:"
    INDEX 01 01:46:61
  TRACK 104 AUDIO
    TITLE "26:cjc135_2101"
    INDEX 01 01:47:37
  TRACK 105 AUDIO
    TITLE "0:"
    INDEX 01 01:48:73
  TRACK 106 AUDIO
    TITLE "26:cjc135_2102"
    INDEX 01 01:49:47
  TRACK 107 AUDIO
    TITLE "0:"
    INDEX 01 01:50:49
  TRACK 108 AUDIO
    TITLE "26:cjc135_2103"
    INDEX 01 01:51:25
  TRACK 109 AUDIO
    TITLE "0:"
    INDEX 01 01:52:44
  TRACK 110 AUDIO
    TITLE "26:cjc135_2104"
    INDEX 01 01:53:18
  TRACK 111 AUDIO
    TITLE "0:"
    INDEX 01 01:54:23
  TRACK 112 AUDIO
    TITLE "26:cjc135_2105"
    INDEX 01 01:54:72
  TRACK 113 AUDIO
    TITLE "0:"
    INDEX 01 01:56:10
  TRACK 114 AUDIO
    TITLE "26:cjc135_2106"
    INDEX 01 01:56:63
  TRACK 115 AUDIO
    TITLE "0:"
    INDEX 01 01:58:17
  TRACK 116 AUDIO
    TITLE "26:cjc135_2107"
    INDEX 01 01:58:74
  TRACK 117 AUDIO
    TITLE "0:"
    INDEX 01 02:00:29
  TRACK 118 AUDIO
    TITLE "26:cjc135_2108"
    INDEX 01 02:01:01
  TRACK 119 AUDIO
    TITLE "0:"
    INDEX 01 02:02:22
  TRACK 120 AUDIO
    TITLE "26:cjc135_2109"
    INDEX 01 02:03:00
  TRACK 121 AUDIO
    TITLE "0:"
    INDEX 01 02:04:35
  TRACK 122 AUDIO
    TITLE "26:cjc135_2110"
    INDEX 01 02:05:13
  TRACK 123 AUDIO
    TITLE "0:"
    INDEX 01 02:06:34
  TRACK 124 AUDIO
    TITLE "26:cjc135_2111"
    INDEX 01 02:07:10
  TRACK 125 AUDIO
    TITLE "0:"
    INDEX 01 02:08:25
  TRACK 126 AUDIO
    TITLE "26:cjc135_2112"
    INDEX 01 02:09:03
  TRACK 127 AUDIO
    TITLE "0:"
    INDEX 01 02:10:16
  TRACK 128 AUDIO
    TITLE "26:cjc135_2113"
    INDEX 01 02:10:67
  TRACK 129 AUDIO
    TITLE "0:"
    INDEX 01 02:12:13
  TRACK 130 AUDIO
    TITLE "26:cjc135_2114"
    INDEX 01 02:12:64
  TRACK 131 AUDIO
    TITLE "0:"
    INDEX 01 02:14:02
  TRACK 132 AUDIO
    TITLE "26:cjc135_2115"
    INDEX 01 02:14:55
  TRACK 133 AUDIO
    TITLE "0:"
    INDEX 01 02:16:01
  TRACK 134 AUDIO
    TITLE "26:cjc135_2116"
    INDEX 01 02:16:52
  TRACK 135 AUDIO
    TITLE "0:"
    INDEX 01 02:18:08
  TRACK 136 AUDIO
    TITLE "26:cjc135_2117"
    INDEX 01 02:18:57
  TRACK 137 AUDIO
    TITLE "0:"
    INDEX 01 02:19:58
  TRACK 138 AUDIO
    TITLE "26:cjc135_2118"
    INDEX 01 02:20:38
  TRACK 139 AUDIO
    TITLE "0:"
    INDEX 01 02:21:59
  TRACK 140 AUDIO
    TITLE "26:cjc135_2119"
    INDEX 01 02:22:33
  TRACK 141 AUDIO
    TITLE "0:"
    INDEX 01 02:23:44
  TRACK 142 AUDIO
    TITLE "26:cjc135_2120"
    INDEX 01 02:24:20
  TRACK 143 AUDIO
    TITLE "0:"
    INDEX 01 02:25:47
  TRACK 144 AUDIO
    TITLE "26:cjc135_2121"
    INDEX 01 02:26:25
  TRACK 145 AUDIO
    TITLE "0:"
    INDEX 01 02:27:30
  TRACK 146 AUDIO
    TITLE "26:cjc135_2122"
    INDEX 01 02:28:04
  TRACK 147 AUDIO
    TITLE "0:"
    INDEX 01 02:29:23
  TRACK 148 AUDIO
    TITLE "26:cjc135_2123"
    INDEX 01 02:29:72
  TRACK 149 AUDIO
    TITLE "0:"
    INDEX 01 02:31:16
  TRACK 150 AUDIO
    TITLE "26:cjc135_2124"
    INDEX 01 02:31:69
  TRACK 151 AUDIO
    TITLE "0:"
    INDEX 01 02:33:25
  TRACK 152 AUDIO
    TITLE "26:cjc135_2125"
    INDEX 01 02:34:03
  TRACK 153 AUDIO
    TITLE "0:"
    INDEX 01 02:35:14
  TRACK 154 AUDIO
    TITLE "26:cjc135_2126"
    INDEX 01 02:35:63
  TRACK 155 AUDIO
    TITLE "0:"
    INDEX 01 02:37:11
  TRACK 156 AUDIO
    TITLE "26:cjc135_2127"
    INDEX 01 02:37:68
  TRACK 157 AUDIO
    TITLE "0:"
    INDEX 01 02:39:14
  TRACK 158 AUDIO
    TITLE "26:cjc135_2128"
    INDEX 01 02:39:65
  TRACK 159 AUDIO
    TITLE "0:"
    INDEX 01 02:41:28
  TRACK 160 AUDIO
    TITLE "26:cjc135_2129"
    INDEX 01 02:42:04
  TRACK 161 AUDIO
    TITLE "0:"
    INDEX 01 02:43:29
  TRACK 162 AUDIO
    TITLE "26:cjc135_2130"
    INDEX 01 02:44:03
  TRACK 163 AUDIO
    TITLE "0:"
    INDEX 01 02:45:40
  TRACK 164 AUDIO
    TITLE "26:cjc135_2131"
    INDEX 01 02:46:18
  TRACK 165 AUDIO
    TITLE "0:"
    INDEX 01 02:47:35
  TRACK 166 AUDIO
    TITLE "26:cjc135_2132"
    INDEX 01 02:48:09
  TRACK 167 AUDIO
    TITLE "0:"
    INDEX 01 02:49:26
  TRACK 168 AUDIO
    TITLE "26:cjc135_2133"
    INDEX 01 02:50:12
  TRACK 169 AUDIO
    TITLE "0:"
    INDEX 01 02:51:40
  TRACK 170 AUDIO
    TITLE "26:cjc135_2134"
    INDEX 01 02:52:14
  TRACK 171 AUDIO
    TITLE "0:"
    INDEX 01 02:53:33
  TRACK 172 AUDIO
    TITLE "26:cjc135_2135"
    INDEX 01 02:54:07
  TRACK 173 AUDIO
    TITLE "0:"
    INDEX 01 02:55:17
  TRACK 174 AUDIO
    TITLE "26:cjc135_2136"
    INDEX 01 02:55:68
  TRACK 175 AUDIO
    TITLE "0:"
    INDEX 01 02:57:02
  TRACK 176 AUDIO
    TITLE "26:cjc135_2137"
    INDEX 01 02:57:55
  TRACK 177 AUDIO
    TITLE "0:"
    INDEX 01 02:58:64
  TRACK 178 AUDIO
    TITLE "26:cjc135_2138"
    INDEX 01 02:59:42
  TRACK 179 AUDIO
    TITLE "0:"
    INDEX 01 03:00:65
  TRACK 180 AUDIO
    TITLE "26:cjc135_2139"
    INDEX 01 03:01:39
  TRACK 181 AUDIO
    TITLE "0:"
    INDEX 01 03:02:58
  TRACK 182 AUDIO
    TITLE "26:cjc135_2140"
    INDEX 01 03:03:40
  TRACK 183 AUDIO
    TITLE "0:"
    INDEX 01 03:04:61
  TRACK 184 AUDIO
    TITLE "26:cjc135_2141"
    INDEX 01 03:05:41
  TRACK 185 AUDIO
    TITLE "0:"
    INDEX 01 03:06:71
  TRACK 186 AUDIO
    TITLE "26:cjc135_2142"
    INDEX 01 03:07:45
  TRACK 187 AUDIO
    TITLE "0:"
    INDEX 01 03:08:43
  TRACK 188 AUDIO
    TITLE "26:cjc135_2143"
    INDEX 01 03:09:19
  TRACK 189 AUDIO
    TITLE "0:"
    INDEX 01 03:10:38
  TRACK 190 AUDIO
    TITLE "26:cjc135_2144"
    INDEX 01 03:11:14
  TRACK 191 AUDIO
    TITLE "0:"
    INDEX 01 03:12:13
  TRACK 192 AUDIO
    TITLE "26:cjc135_2145"
    INDEX 01 03:12:62
  TRACK 193 AUDIO
    TITLE "0:"
    INDEX 01 03:14:20
  TRACK 194 AUDIO
    TITLE "26:cjc135_2146"
    INDEX 01 03:14:69
  TRACK 195 AUDIO
    TITLE "0:"
    INDEX 01 03:16:01
  TRACK 196 AUDIO
    TITLE "26:cjc135_2147"
    INDEX 01 03:16:50
  TRACK 197 AUDIO
    TITLE "0:"
    INDEX 01 03:18:08
  TRACK 198 AUDIO
    TITLE "26:cjc135_2148"
    INDEX 01 03:18:57
  TRACK 199 AUDIO
    TITLE "0:"
    INDEX 01 03:19:64
  TRACK 200 AUDIO
    TITLE "26:cjc135_2149"
    INDEX 01 03:20:36
  TRACK 201 AUDIO
    TITLE "0:"
    INDEX 01 03:21:55
  TRACK 202 AUDIO
    TITLE "26:cjc135_2150"
    INDEX 01 03:22:29
  TRACK 203 AUDIO
    TITLE "0:"
    INDEX 01 03:23:40
  TRACK 204 AUDIO
    TITLE "26:cjc135_2151"
    INDEX 01 03:24:14
  TRACK 205 AUDIO
    TITLE "0:"
    INDEX 01 03:25:37
  TRACK 206 AUDIO
    TITLE "26:cjc135_2152"
    INDEX 01 03:26:11
  TRACK 207 AUDIO
    TITLE "0:"
    INDEX 01 03:27:38
  TRACK 208 AUDIO
    TITLE "26:cjc135_2153"
    INDEX 01 03:28:12
  TRACK 209 AUDIO
    TITLE "0:"
    INDEX 01 03:29:41
